<?xml version="1.0" encoding="UTF-8"?>
<svg xmlns="http://www.w3.org/2000/svg" xmlns:xlink="http://www.w3.org/1999/xlink" width="20px" height="20px" viewBox="0 0 20 20" version="1.1">
<g id="surface1">
<path style=" stroke:none;fill-rule:nonzero;fill:rgb(0%,0%,0%);fill-opacity:1;" d="M 7.5 1.667969 C 4.289062 1.667969 1.667969 4.289062 1.667969 7.5 C 1.667969 10.710938 4.289062 13.332031 7.5 13.332031 C 8.957031 13.332031 10.289062 12.789062 11.3125 11.902344 L 11.667969 12.253906 L 11.667969 13.332031 L 16.667969 18.332031 L 18.332031 16.667969 L 13.332031 11.667969 L 12.253906 11.667969 L 11.902344 11.3125 C 12.789062 10.289062 13.332031 8.957031 13.332031 7.5 C 13.332031 4.289062 10.710938 1.667969 7.5 1.667969 Z M 7.5 3.332031 C 9.8125 3.332031 11.667969 5.1875 11.667969 7.5 C 11.667969 9.8125 9.8125 11.667969 7.5 11.667969 C 5.1875 11.667969 3.332031 9.8125 3.332031 7.5 C 3.332031 5.1875 5.1875 3.332031 7.5 3.332031 Z M 7.5 3.332031 "/>
</g>
</svg>
