<?xml version="1.0" encoding="UTF-8"?>
<svg xmlns="http://www.w3.org/2000/svg" xmlns:xlink="http://www.w3.org/1999/xlink" width="20px" height="20px" viewBox="0 0 20 20" version="1.1">
<g id="surface1">
<path style=" stroke:none;fill-rule:nonzero;fill:rgb(0%,0%,0%);fill-opacity:1;" d="M 14.875 12.800781 L 17.320312 3.214844 L 20 3.214844 L 20 1.707031 L 16.152344 1.707031 L 15.574219 3.96875 L 0 3.957031 L 1.65625 12.800781 Z M 15.191406 5.476562 L 13.703125 11.292969 L 2.90625 11.292969 L 1.816406 5.464844 Z M 15.191406 5.476562 "/>
<path style=" stroke:none;fill-rule:nonzero;fill:rgb(0%,0%,0%);fill-opacity:1;" d="M 12.8125 18.292969 C 14.140625 18.292969 15.222656 17.210938 15.222656 15.882812 C 15.222656 14.550781 14.140625 13.472656 12.8125 13.472656 L 3.738281 13.472656 C 2.410156 13.472656 1.328125 14.550781 1.328125 15.882812 C 1.328125 17.210938 2.410156 18.292969 3.738281 18.292969 C 5.066406 18.292969 6.144531 17.210938 6.144531 15.882812 C 6.144531 15.5625 6.082031 15.257812 5.96875 14.976562 L 10.578125 14.976562 C 10.464844 15.257812 10.402344 15.5625 10.402344 15.882812 C 10.402344 17.210938 11.484375 18.292969 12.8125 18.292969 Z M 4.636719 15.882812 C 4.636719 16.378906 4.234375 16.785156 3.738281 16.785156 C 3.238281 16.785156 2.835938 16.378906 2.835938 15.882812 C 2.835938 15.382812 3.238281 14.976562 3.738281 14.976562 C 4.234375 14.976562 4.636719 15.382812 4.636719 15.882812 Z M 13.714844 15.882812 C 13.714844 16.378906 13.308594 16.785156 12.8125 16.785156 C 12.316406 16.785156 11.910156 16.378906 11.910156 15.882812 C 11.910156 15.382812 12.316406 14.976562 12.8125 14.976562 C 13.308594 14.976562 13.714844 15.382812 13.714844 15.882812 Z M 13.714844 15.882812 "/>
</g>
</svg>
